<?xml version="1.0" encoding="utf-8"?>
<!-- Generator: Adobe Illustrator 17.1.0, SVG Export Plug-In . SVG Version: 6.00 Build 0)  -->
<!DOCTYPE svg PUBLIC "-//W3C//DTD SVG 1.1//EN" "http://www.w3.org/Graphics/SVG/1.1/DTD/svg11.dtd">
<svg version="1.1" id="圖層_1" xmlns="http://www.w3.org/2000/svg" xmlns:xlink="http://www.w3.org/1999/xlink" x="0px" y="0px"
	 viewBox="0 0 522.8 490" enable-background="new 0 0 522.8 490" xml:space="preserve">
<g>
	<g opacity="0.13">
		<polygon fill="#FFFFFF" points="318.1,261.4 370.4,218.4 165.1,218.4 117.4,261.4 		"/>
		<polygon fill="#FFFFFF" points="374.7,350.7 373.8,350.3 357.1,389.5 173,31.4 123,145.1 123.9,145.5 140.5,107.9 325,467.2 		"/>
		<polygon fill="#FFFFFF" points="385.6,62 353.3,0 180.1,423.7 149.8,362.2 122.1,426 154.2,490 328.8,62.7 360.4,126.2 		"/>
	</g>
	<g>
		<path fill="#FFFFFF" d="M323,328.4c2.6,0.1,2.7,3.3,1,4.7c-0.6,0.5-1.7,0.4-2.4,0.1c-1.2-0.5-1.6-2-1.2-3.2
			C320.7,329,321.9,328.4,323,328.4z"/>
		<path fill="#FFFFFF" d="M366.5,349.3c-3.5,4.6-8.6,8.7-14.1,10.7c-2.3,0.8-4.4,0.9-4.6-1.9c0-0.5-0.1-3.7,0.5-4
			c4.5-2.2,8.3-4.8,10.2-9.7c0.8-2.1,1.7-7.4-2.2-6.6c-1.4,0.3-2.9,1.3-4,2.2c-3,2.6-6.1,10.9-6.1,10.9
			c-7.9,9.6-11.7,10.5-11.7,10.5l-0.2-0.1c0.3,0.2,1.8-1.5,1.9-1.7c0.7-0.8,1.2-1.7,1.7-2.7c1.3-2.5,2.2-5.7,1.7-8.5
			c-0.4-2.3-1.7-4.3-3.2-6c0,0-1-1.1-1-1.1c1.7-2.3,3.4-9.9-2.1-7.5c-1.1,0.5-1.9,1.4-2.2,2.6c-0.3,1.3,0.2,2.3,0.6,3.6
			c0.4,0.9,1.7,2.6,1.7,2.6c-0.9,1.7-9.8,13-13.2,16.2c-3.4,3.2-5.9,4.7-5.7,2.5c0.2-2.2,4.9-9.9,5.4-10.8c1.4-2.9,3.4-5.7,3.9-9
			c0.6-3.3-1.7-3.4-1.7-3.4s-1.4,3-2,4.3c-0.5,1.1-5.3,11.2-5.6,11.4c0,0-6.3,6.2-10.4,8.8c-4.1,2.7-2.6-2.9-1.7-4.5
			c1.8-3.5,4.7-6.6,7.1-9.7c1.9-2.5,5-5.5,3.1-8.9c-0.9-1.7-2.5-2.1-3.4-2c-1,0.2-8.6,2.5-8.6,2.5c0.7-1.2,1.7-4.4-0.5-4.4
			c-2.1,0-3.9,1.3-4.8,3.2c-1.8,3.9,3.3,3.3,3.3,3.3c-4.4,10.1-15.2,20-15.2,20c-5.6,4.5-4.8,0.2-4.2-0.8c0.5-1,2.8-4.7,6.3-7.9
			c2.5-2.3,5-4.8,5.9-8.2c0.5-1.6,0.4-3.7-0.9-5c-1.1-1.1-3-1.6-4.5-1.8c-6.3-0.9-12.1,6-12.7,6.6c-0.6,0.7-0.6,0.2-0.6,0.2
			c0.1-1.6-1.3-2.4-1.3-2.4c-2.4-1.8-4.1,0.7-4.1,0.7s4.4-1.5,3.4,2.1c-1.9,6.9-8.4,16.2-9.6,18.2c-0.3,0.5-0.7,0.9-1.1,1.2
			c-1.9,1.3-3.8,2.3-5.4,1.5c-1.9-0.9,2.3-8.5,2.7-9.2c0.4-0.7,4.2-6.6,5.4-8.4c1.2-1.7,1.2-2.8,1.2-2.8c0.2-1.3-1.4-4.5-6.8-1.6
			c-5.4,2.9-7.4,2.7-7.4,2.7c0.6-1.5,0.6-2.8,0.2-3.4c-0.4-0.6-2.8-0.7-4,1.9c-1.2,2.6,2.3,3.2,2.3,3.2l-0.1,0.3
			c-6,10.7-14.5,16.8-14.5,16.8s-3.3,3-6.1,2.4c-2.8-0.6-0.6-7-0.6-7l0.3-0.1c2.1-0.5,3.8-2,5.4-3.4c0.9-0.9,1.8-1.8,2.7-2.8
			c2-2.3,4.2-4.8,5.5-7.7c0.5-1.1,1.1-2.7-0.3-3.5c-0.8-0.5-2.1,0.2-2.8,0.6c-2.9,1.8-5.6,4.1-7.8,6.7c-1.6,1.9-3.1,4-4.4,6.1
			c-0.3,0.5-0.5,1-0.9,1.4c-0.4,0.6-7.2,9.2-9.7,9.7c-1.6,0.3-2-2.4-1.5-4.3c0.5-1.9,10.4-25.8,10.4-25.8c1.2-1.2,13.4-5.2,15.8-5.6
			c2.4-0.4,3.1,0.3,3.1,0.3c-1.5-1.9-4.2-1.7-6.1-1.4c-1.4,0.2-12.7,4.1-12.7,4.1s0.3-0.7-0.1-2c-0.4-1.3-2.3-1.4-2.3-1.4l0.2,0.4
			c0.3,1-0.2,4.1-0.2,4.1c-3,1.5-6.4,2.6-9.7,3.4c-1.8,0.4-3.3,0.4-5-0.4c0.3,0.1,0.4,0.9,0.5,1.1c1.3,2,4.4,0.7,6.2,0.2
			c2-0.6,4-1.3,5.9-2c0.4-0.2,0.9-0.3,1.3-0.5l0.3-0.2c0,0-10,21.8-10.2,25.5c0,0.9-3.7,3.7-5.3,4.4c-1.6,0.7-3.7,0.8-3.3-2.9
			c0.4-3.7,5.8-13.9,5.8-13.9c0.6-0.9,2.2-4.2-0.3-5.4c-2.5-1.2-5.1,0.1-6,0.4c-0.8,0.3-5.6,3.4-5.6,3.4c1.5-2.8-0.3-5.2-1.8-5.3
			c-1.4-0.1-4,1.2-5.3,2.3c-1.3,1.1-0.3,1.6-0.3,1.6s5.2-4.7,5.5-2.5c0.3,2.2-1.1,4.2-1.7,5.3c-0.3,0.4-1.7,2.9-3.2,5.8
			c-1,0.8-9.6,8.8-14.8,12.8c-2.1,1.6-5,3.5-7.4,2.6c-3.6-1.4-2-6.9-1.2-9.3c1.3-3.8,3.3-7.1,6.4-9.9c1.8-1.6,4.1-3.1,6.4-3.8
			c0.5-0.1,1.6-0.3,1.5-0.5c0,0,0-0.2-0.4-1.2c-0.4-1-0.7-2.7-0.7-2.7c0-0.1,1.7-0.8,1.8-0.9c0.5-0.3,0.9-0.5,1.4-0.9
			c0.9-0.6,1.7-1.3,2.4-2c1.6-1.5,2.8-3.3,4-5.1c0.7-1.1,5.4-7.2,1.9-7.7c-2.9-0.5-4.6,0.7-6.5,2c-1.8,1.2-3.7,3.1-5,4.9
			c-1.8,2.4-2.6,5.9-2.7,8.9c0,0,0,0.6,0,0.7c-1,0.4-12.5,2.9-11.1-5.9c1.4-8.8,14.2-8.9,14.2-8.9s0-1.4-4.8-0.5
			c-4.7,0.9-9.7,4-10.6,8.9c-0.4,1.9-0.1,3.9,1.2,5.3c2.2,2.5,6.9,3.1,11.3,2c0,0,0.8,1.8,1.1,2.2c0.3,0.5-14.9,4.1-15.7,17.3
			c-0.8,13.2,8.9,11,16.4,3.2l9.3-8.6c-0.9,1.7-1.8,3.3-2.6,5c-0.6,1.2-1.4,2.4-1,3.8c0.4,1.2,1.8,1.8,2.8,2.3c0,0-0.7-1.6,0.3-3.9
			c1-2.2,6.8-12.5,7.6-13.8c0.9-1.3,6.4-6.4,9.4-6.5c3.1-0.2,2.9,1.7,1.9,3.2c-1,1.5-5.8,9.4-6.6,13.2c-0.8,3.8,1.2,5.8,3.6,6.4
			c2.3,0.6,5.8-1.2,7.5-4.1c0,0,0.5,3.9,3.5,4.2c1.9,0.2,3.3-1,4.8-2.5c1.5-1.4,5.3-6.2,5.3-6.2s-1.6,6.2,0.6,8.1
			c2.2,2,4.3,0.8,5.1,0.6c0.7-0.2,9.4-4,19.4-20.8l0.2-0.3c0,0,2.2,0.3,7.1-2.5c4.9-2.8,6-1.8,4.6,0.4c-1.4,2.2-6.4,10.1-7.4,12.3
			c-1.1,2.1-2.6,8,0.5,9c3,1.1,5.8-1.4,5.8-1.4s-12.7,21.8-13.9,27.2c-1.2,5.5,2,6.5,2,6.5s0.1-8.1,8.1-22.7
			c8.7-15.8,16.6-29.9,16.6-29.9s3.2-4.2,6.1-6c2.9-1.8,4.5-2.3,6.8-2.1c2.3,0.2,3.5,0.6,3.6,3.7c0.1,2.4-1.4,3.9-2.7,5.8
			c-1.7,2.5-4.1,4.4-6.1,6.7c-1.8,2-3.9,4.7-3.6,7.5c0.3,2.8,3.5,2.4,5,1.4c1.5-0.9,5.2-4,10-9.8c4.8-5.8,8.4-13.1,8.4-13.1
			s8-3.4,9.4-3.1c1.4,0.2,1.7,1.8-0.2,4.8c-2,2.9-6.5,8.9-7.3,10.1c-0.7,1.2-4.9,7-2.3,9.5c2.7,2.5,4.4,0.6,5.6-0.3
			c1.3-1,7.4-6,8-6.7c0,0-1.5,4.1-1.1,5.8s1.3,2.2,1.9,2.3c0.6,0.1,1.6,0.4,4.6-2.1c2.9-2.5,6.3-6.5,6.3-6.5s6.4-7.7,9.2-12.2
			c2.8,1.5,3.1,4.6,2.8,6.9c-0.4,2.4-1.3,5-2.2,7.3c-0.5,1.4-1.3,3.4-2.8,4c-1.9,0.8-2.3,0.8-5.1-1.3c0,0-0.6,0.3-0.1,1
			c0.5,0.6,4.2,3.5,8.3,1.4c0,0,3.7-1.9,10.3-9.4c0,0-0.6,4.4,0.5,6.3c0.9,1.6,2.4,2.5,4.2,2.6c1.6,0.1,7.2-3,10.8-6.2
			c3.6-3.2,5.8-5.6,5.9-5.8C366.8,349.8,366.5,349.3,366.5,349.3z M352.4,343.5c2.4-3.8,4.7-3.6,4.7-3.6c1.2,0.8-1,6.3-2.8,8.3
			c-1.8,2-5.8,5.2-5.9,4.8C348.5,352.7,350,347.3,352.4,343.5z M230.1,354.2c1-1.2,3.4-4.5,4.8-5.7c1.4-1.2,4.1-3.8,4.6-2.9
			c0,0,0.7,2-1.9,5.3c-2.1,2.7-3.1,3.7-4.6,5.1c-1.5,1.4-4,3.7-5.3,4.2S229.3,355.3,230.1,354.2z M181.4,336.8
			c1.3-2.2,2.5-3.6,4.1-4.9c1-0.8,2.6-2,4-1.7c0.3,0,0.4,0.1,0.6,0.3c0.9,0.6-0.4,2.5-0.7,3.1c-1.5,2.6-3.1,5.3-5.4,7.2
			c-1.4,1.2-4.7,3.6-4.9,2.6C178.8,342.4,181.4,336.9,181.4,336.8z M249.1,345.4c-0.2,0.9-0.4,2-0.8,2.3s-1.6,0-1.6-0.7
			c0-0.6,1.3-2.1,1.8-2.3C248.5,344.7,249.3,344.4,249.1,345.4z M300,339.6c-0.3,0.6-1.1,1.8-2.3,1.9c-1.3,0.1-1.6-0.7-0.9-2.2
			c0.5-1.1,1.4-1.6,2.5-2c0.4-0.1,0.9-0.2,1.1,0.2c0.2,0.4,0,1-0.1,1.4C300.2,339.1,300.1,339.4,300,339.6z M334,340.7
			c-1.1-0.2-1.2-2.5-0.8-3.9c0.3-1.2,0.9-1.7,0.9-1.7c1.6,0,1.5,1.6,1.5,1.6C335.3,341,334,340.7,334,340.7z"/>
	</g>
	<g>
		<polygon fill="#FFFFFF" points="54.4,297.9 35.7,275.6 12.7,295.1 31.8,317.8 65.8,290 65.3,289.4 		"/>
		<polygon fill="#FFFFFF" points="121.1,297.9 102.3,275.5 79.3,295.1 98.4,317.8 132.4,290 131.9,289.4 		"/>
		<polygon fill="#FFFFFF" points="101.1,274 101.1,138.2 66.8,165.7 67.1,166.3 78.1,157.3 78.1,210.4 34.9,210.4 34.1,209.2 
			34.1,138.2 0,165.7 0.7,166.3 12.1,157.4 12.1,293.5 34.1,274 34.1,231.4 78.1,231.4 78.1,293.5 		"/>
		<polygon fill="#FFFFFF" points="157.1,274 157.1,181.4 122.3,209.1 123.1,209.7 135.1,200.4 135.1,293.5 		"/>
		<polygon fill="#FFFFFF" points="135.1,156 135.1,178.6 157.1,159.1 157.1,136.8 122.3,164.7 123.1,165.3 		"/>
		<polygon fill="#FFFFFF" points="220.1,154.3 181.6,185.1 181.9,185.7 197.1,173.5 197.1,184.4 194.4,184.4 168.3,206.4 
			197.1,206.4 197.1,293.5 220.1,274 220.1,206.4 228.6,206.4 257.1,184.4 220.1,184.4 		"/>
		<polygon fill="#FFFFFF" points="285.1,274 285.1,162.4 293.7,155.2 312.5,177.6 334.1,159.3 315.2,136.6 285.1,161.4 285.1,138.2 
			250.5,165.7 250.9,166.3 262.1,157.4 262.1,293.5 		"/>
		<polygon fill="#FFFFFF" points="177,297.9 158.2,275.5 135.2,295.1 154.4,317.8 188.4,290 187.9,289.4 		"/>
		<polygon fill="#FFFFFF" points="240,297.8 221.2,275.5 198.3,295 217.4,317.7 251.4,289.9 250.9,289.3 		"/>
		<polygon fill="#FFFFFF" points="304.4,297.8 285.6,275.5 262.7,295 281.8,317.7 315.8,289.9 315.3,289.3 		"/>
		<polygon fill="#FFFFFF" points="402,201 379.1,219.9 379.1,292 371.6,297.8 352.8,275.5 329.9,295 348.5,317.7 378.1,293.1 
			378.1,293.1 379.1,292.7 379.8,292.3 379.9,292.3 401.9,273.9 		"/>
		<polygon fill="#FFFFFF" points="492.2,201 469.3,219.9 469.3,292 461.8,297.8 443,275.5 420.1,295 439.1,317.7 469.1,293.1 
			469.1,293.1 469.7,292.7 470.2,292.3 470.2,292.3 492.2,273.9 		"/>
		<polygon fill="#FFFFFF" points="383.2,176 353.1,200.8 353.1,181.4 317.7,209.1 317.8,209.7 329.1,200.4 329.1,293.5 353.1,274 
			353.1,201.7 360.5,195.7 378.9,218.2 402.1,198.9 		"/>
		<polygon fill="#FFFFFF" points="472.8,176 442.1,200.8 442.1,181.4 407.2,209.1 407.6,209.7 419.1,200.4 419.1,293.5 442.1,274 
			442.1,201.7 450,195.7 468.6,218.2 491.7,198.9 		"/>
		<polygon fill="#FFFFFF" points="511.4,297.8 492.6,275.5 469.7,295 488.8,317.7 522.8,289.9 522.3,289.3 		"/>
	</g>
</g>
</svg>
