<?xml version="1.0" encoding="utf-8"?>
<!-- Generator: Adobe Illustrator 17.1.0, SVG Export Plug-In . SVG Version: 6.00 Build 0)  -->
<!DOCTYPE svg PUBLIC "-//W3C//DTD SVG 1.1//EN" "http://www.w3.org/Graphics/SVG/1.1/DTD/svg11.dtd">
<svg version="1.1" id="Layer_1" xmlns="http://www.w3.org/2000/svg" xmlns:xlink="http://www.w3.org/1999/xlink" x="0px" y="0px"
	 viewBox="-51.5 -15 200 50" enable-background="new -51.5 -15 200 50" xml:space="preserve">
<g>
	<path fill="#FFFFFF" d="M-39.8,8.4h16.5V1.8h3.7v16.5h-3.7v-6.8h-16.5v6.8h-3.7V1.8h3.7V8.4z"/>
	<path fill="#FFFFFF" d="M-10.4,18.2h-3.7V1.8h3.7V18.2z"/>
	<path fill="#FFFFFF" d="M18.2,1.8v3H7.7v13.5H4.1V4.8H-6.4v-3H18.2z"/>
	<path fill="#FFFFFF" d="M33.1,18.6c-5.1,0-8.5-0.9-10.5-2.9c-1.4-1.4-2.1-3.3-2.1-5.6s0.8-4.2,2.1-5.6c2-2,5.4-2.9,10.5-2.9
		c4.2,0,7.6,0.7,10.1,2.1v3.4c-1.3-0.8-2.7-1.3-4.4-1.8C37,4.9,35,4.5,33.2,4.5c-3.8,0-6.4,0.7-7.7,1.8c-0.9,0.9-1.3,2.1-1.3,3.8
		c0,1.6,0.4,2.7,1.3,3.7c1.3,1.3,3.8,2,7.6,2c2,0,3.8-0.3,5.5-0.7c1.7-0.4,3.3-1,4.4-1.7v3.1C40.7,18,37.3,18.6,33.1,18.6z"/>
	<path fill="#FFFFFF" d="M60.3,1.4c5.2,0,8.9,1,10.7,2.9c1.4,1.4,2.1,3.4,2.1,5.8s-0.8,4.3-2.1,5.8c-2,2-5.5,2.9-10.7,2.9
		s-8.9-0.9-10.7-2.9c-1.4-1.4-2.2-3.4-2.2-5.8s0.8-4.3,2.1-5.8C51.4,2.3,55,1.4,60.3,1.4z M60.3,4.2c-3.9,0-6.5,0.7-7.8,2
		C51.5,7.1,51,8.4,51,10c0,1.6,0.5,2.9,1.4,3.8c1.3,1.3,3.9,2,7.8,2s6.5-0.7,7.8-2c0.9-0.9,1.3-2.2,1.3-3.8c0-1.6-0.4-2.9-1.4-3.8
		C66.8,4.9,64.2,4.2,60.3,4.2z"/>
	<path fill="#FFFFFF" d="M83,1.8L97.8,15V1.8h3.7v16.5h-5.1l-15-13.5v13.5h-3.7V1.8H83z"/>
	<g>
		<path fill="#FFFFFF" d="M114.6,18.2L114.6,18.2l10.1-8.3l-10-8.1V1.8h5.1l7.7,6.5l7.8-6.5h5v0.1l-10,8.1l10.2,8.2v0.1h-5.1
			l-7.9-6.6l-8,6.6H114.6z"/>
	</g>
</g>
</svg>
