<?xml version="1.0" encoding="utf-8"?>
<!-- Generator: Adobe Illustrator 17.1.0, SVG Export Plug-In . SVG Version: 6.00 Build 0)  -->
<!DOCTYPE svg PUBLIC "-//W3C//DTD SVG 1.1//EN" "http://www.w3.org/Graphics/SVG/1.1/DTD/svg11.dtd">
<svg version="1.1" id="圖層_1" xmlns="http://www.w3.org/2000/svg" xmlns:xlink="http://www.w3.org/1999/xlink" x="0px" y="0px"
	 viewBox="-81.5 -111.9 260.1 243.8" enable-background="new -81.5 -111.9 260.1 243.8" xml:space="preserve">
<g>
	<g opacity="0.13">
		<polygon fill="#FFFFFF" points="76.7,18.2 102.7,-3.2 0.6,-3.2 -23.1,18.2 		"/>
		<polygon fill="#FFFFFF" points="104.9,62.6 104.4,62.4 96.1,81.9 4.5,-96.3 -20.3,-39.7 -19.9,-39.5 -11.6,-58.2 80.1,120.5 		"/>
		<polygon fill="#FFFFFF" points="110.3,-81 94.2,-111.9 8.1,98.9 -7,68.3 -20.8,100 -4.8,131.9 82,-80.7 97.7,-49.1 		"/>
	</g>
	<g>
		<path fill="#FFFFFF" d="M79.1,51.5c1.3,0,1.3,1.6,0.5,2.3c-0.3,0.2-0.8,0.2-1.2,0c-0.6-0.2-0.8-1-0.6-1.6
			C78,51.8,78.6,51.5,79.1,51.5z"/>
		<path fill="#FFFFFF" d="M100.8,61.9c-1.7,2.3-4.3,4.3-7,5.3c-1.1,0.4-2.2,0.4-2.3-0.9c0-0.2,0-1.8,0.2-2c2.2-1.1,4.1-2.4,5.1-4.8
			c0.4-1,0.8-3.7-1.1-3.3c-0.7,0.1-1.4,0.6-2,1.1c-1.5,1.3-3,5.4-3,5.4c-3.9,4.8-5.8,5.2-5.8,5.2l-0.1,0c0.1,0.1,0.9-0.7,0.9-0.8
			c0.3-0.4,0.6-0.8,0.8-1.3c0.6-1.2,1.1-2.8,0.8-4.2c-0.2-1.1-0.8-2.1-1.6-3l-0.5-0.5c0.8-1.1,1.7-4.9-1-3.7
			c-0.5,0.2-0.9,0.7-1.1,1.3c-0.1,0.6,0.1,1.1,0.3,1.8c0.2,0.4,0.8,1.3,0.8,1.3c-0.4,0.8-4.9,6.5-6.6,8.1c-1.7,1.6-2.9,2.3-2.8,1.2
			c0.1-1.1,2.4-4.9,2.7-5.4c0.7-1.4,1.7-2.8,1.9-4.5c0.3-1.6-0.8-1.7-0.8-1.7s-0.7,1.5-1,2.1c-0.2,0.5-2.6,5.6-2.8,5.7
			c0,0-3.1,3.1-5.2,4.4c-2,1.3-1.3-1.4-0.8-2.2c0.9-1.7,2.3-3.3,3.5-4.8c0.9-1.2,2.5-2.7,1.5-4.4c-0.4-0.8-1.2-1-1.7-1
			c-0.5,0.1-4.3,1.2-4.3,1.2c0.3-0.6,0.8-2.2-0.2-2.2c-1,0-1.9,0.6-2.4,1.6c-0.9,1.9,1.6,1.6,1.6,1.6c-2.2,5-7.6,9.9-7.6,9.9
			c-2.8,2.2-2.4,0.1-2.1-0.4c0.2-0.5,1.4-2.3,3.1-3.9c1.2-1.1,2.5-2.4,2.9-4.1c0.2-0.8,0.2-1.8-0.4-2.5c-0.5-0.5-1.5-0.8-2.2-0.9
			c-3.1-0.4-6,3-6.3,3.3c-0.3,0.3-0.3,0.1-0.3,0.1c0-0.8-0.6-1.2-0.6-1.2c-1.2-0.9-2,0.3-2,0.3s2.2-0.7,1.7,1
			c-0.9,3.4-4.2,8.1-4.8,9.1c-0.1,0.2-0.3,0.4-0.5,0.6c-0.9,0.6-1.9,1.1-2.7,0.7c-0.9-0.4,1.1-4.2,1.3-4.6c0.2-0.3,2.1-3.3,2.7-4.2
			c0.6-0.8,0.6-1.4,0.6-1.4c0.1-0.6-0.7-2.2-3.4-0.8s-3.7,1.3-3.7,1.3c0.3-0.7,0.3-1.4,0.1-1.7c-0.2-0.3-1.4-0.3-2,0.9
			c-0.6,1.3,1.1,1.6,1.1,1.6l0,0.1c-3,5.3-7.2,8.4-7.2,8.4s-1.6,1.5-3,1.2c-1.4-0.3-0.3-3.5-0.3-3.5l0.1,0c1-0.2,1.9-1,2.7-1.7
			c0.4-0.4,0.9-0.9,1.3-1.4c1-1.1,2.1-2.4,2.7-3.8c0.2-0.5,0.5-1.3-0.1-1.7c-0.4-0.2-1,0.1-1.4,0.3c-1.4,0.9-2.8,2-3.9,3.3
			c-0.8,0.9-1.5,2-2.2,3c-0.1,0.2-0.2,0.5-0.4,0.7c-0.2,0.3-3.6,4.6-4.8,4.8c-0.8,0.1-1-1.2-0.7-2.1c0.2-0.9,5.2-12.8,5.2-12.8
			c0.6-0.6,6.7-2.6,7.9-2.8c1.2-0.2,1.5,0.1,1.5,0.1c-0.7-0.9-2.1-0.8-3-0.7c-0.7,0.1-6.3,2-6.3,2s0.1-0.3,0-1
			c-0.2-0.6-1.1-0.7-1.1-0.7l0.1,0.2c0.1,0.5-0.1,2-0.1,2c-1.5,0.7-3.2,1.3-4.8,1.7c-0.9,0.2-1.6,0.2-2.5-0.2c0.1,0,0.2,0.4,0.2,0.5
			c0.6,1,2.2,0.3,3.1,0.1c1-0.3,2-0.6,2.9-1c0.2-0.1,0.4-0.1,0.6-0.2l0.1-0.1c0,0-5,10.8-5.1,12.7c0,0.4-1.8,1.8-2.6,2.2
			c-0.8,0.3-1.8,0.4-1.6-1.4c0.2-1.8,2.9-6.9,2.9-6.9c0.3-0.4,1.1-2.1-0.1-2.7c-1.2-0.6-2.5,0-3,0.2c-0.4,0.1-2.8,1.7-2.8,1.7
			c0.7-1.4-0.1-2.6-0.9-2.6c-0.7,0-2,0.6-2.6,1.1c-0.6,0.5-0.1,0.8-0.1,0.8s2.6-2.3,2.7-1.2c0.1,1.1-0.5,2.1-0.8,2.6
			c-0.1,0.2-0.8,1.4-1.6,2.9c-0.5,0.4-4.8,4.4-7.4,6.4c-1,0.8-2.5,1.7-3.7,1.3c-1.8-0.7-1-3.4-0.6-4.6c0.6-1.9,1.6-3.5,3.2-4.9
			c0.9-0.8,2-1.5,3.2-1.9c0.2,0,0.8-0.1,0.7-0.2c0,0,0-0.1-0.2-0.6c-0.2-0.5-0.3-1.3-0.3-1.3c0,0,0.8-0.4,0.9-0.4
			c0.2-0.1,0.4-0.2,0.7-0.4c0.4-0.3,0.8-0.6,1.2-1c0.8-0.7,1.4-1.6,2-2.5c0.3-0.5,2.7-3.6,0.9-3.8c-1.4-0.2-2.3,0.3-3.2,1
			c-0.9,0.6-1.8,1.5-2.5,2.4c-0.9,1.2-1.3,2.9-1.3,4.4c0,0,0,0.3,0,0.3c-0.5,0.2-6.2,1.4-5.5-2.9s7.1-4.4,7.1-4.4s0-0.7-2.4-0.2
			c-2.3,0.4-4.8,2-5.3,4.4c-0.2,0.9,0,1.9,0.6,2.6c1.1,1.2,3.4,1.5,5.6,1c0,0,0.4,0.9,0.5,1.1c0.1,0.2-7.4,2-7.8,8.6
			c-0.4,6.6,4.4,5.5,8.2,1.6l4.6-4.3c-0.4,0.8-0.9,1.6-1.3,2.5c-0.3,0.6-0.7,1.2-0.5,1.9c0.2,0.6,0.9,0.9,1.4,1.1
			c0,0-0.3-0.8,0.1-1.9c0.5-1.1,3.4-6.2,3.8-6.9c0.4-0.6,3.2-3.2,4.7-3.2c1.5-0.1,1.4,0.8,0.9,1.6c-0.5,0.7-2.9,4.7-3.3,6.6
			c-0.4,1.9,0.6,2.9,1.8,3.2c1.1,0.3,2.9-0.6,3.7-2c0,0,0.2,1.9,1.7,2.1c0.9,0.1,1.6-0.5,2.4-1.2c0.7-0.7,2.6-3.1,2.6-3.1
			s-0.8,3.1,0.3,4c1.1,1,2.1,0.4,2.5,0.3c0.3-0.1,4.7-2,9.7-10.3l0.1-0.1c0,0,1.1,0.1,3.5-1.2s3-0.9,2.3,0.2c-0.7,1.1-3.2,5-3.7,6.1
			c-0.5,1-1.3,4,0.2,4.5c1.5,0.5,2.9-0.7,2.9-0.7S41.5,81.3,40.9,84c-0.6,2.7,1,3.2,1,3.2s0-4,4-11.3c4.3-7.9,8.3-14.9,8.3-14.9
			s1.6-2.1,3-3c1.4-0.9,2.2-1.1,3.4-1c1.1,0.1,1.7,0.3,1.8,1.8c0,1.2-0.7,1.9-1.3,2.9c-0.8,1.2-2,2.2-3,3.3c-0.9,1-1.9,2.3-1.8,3.7
			c0.1,1.4,1.7,1.2,2.5,0.7c0.7-0.4,2.6-2,5-4.9c2.4-2.9,4.2-6.5,4.2-6.5s4-1.7,4.7-1.5c0.7,0.1,0.8,0.9-0.1,2.4
			c-1,1.4-3.2,4.4-3.6,5c-0.3,0.6-2.4,3.5-1.1,4.7c1.3,1.2,2.2,0.3,2.8-0.1c0.6-0.5,3.7-3,4-3.3c0,0-0.7,2-0.5,2.9
			c0.2,0.8,0.6,1.1,0.9,1.1c0.3,0,0.8,0.2,2.3-1c1.4-1.2,3.1-3.2,3.1-3.2s3.2-3.8,4.6-6.1c1.4,0.7,1.5,2.3,1.4,3.4
			c-0.2,1.2-0.6,2.5-1.1,3.6c-0.2,0.7-0.6,1.7-1.4,2c-0.9,0.4-1.1,0.4-2.5-0.6c0,0-0.3,0.1,0,0.5c0.2,0.3,2.1,1.7,4.1,0.7
			c0,0,1.8-0.9,5.1-4.7c0,0-0.3,2.2,0.2,3.1c0.4,0.8,1.2,1.2,2.1,1.3c0.8,0,3.6-1.5,5.4-3.1c1.8-1.6,2.9-2.8,2.9-2.9
			C100.9,62.1,100.8,61.9,100.8,61.9z M93.8,59c1.2-1.9,2.3-1.8,2.3-1.8c0.6,0.4-0.5,3.1-1.4,4.1c-0.9,1-2.9,2.6-2.9,2.4
			C91.8,63.6,92.6,60.9,93.8,59z M32.9,64.3c0.5-0.6,1.7-2.2,2.4-2.8c0.7-0.6,2-1.9,2.3-1.4c0,0,0.3,1-0.9,2.6
			c-1,1.3-1.5,1.8-2.3,2.5s-2,1.8-2.6,2.1C31.1,67.6,32.5,64.9,32.9,64.3z M8.7,55.7c0.6-1.1,1.2-1.8,2-2.4c0.5-0.4,1.3-1,2-0.8
			c0.1,0,0.2,0,0.3,0.1c0.4,0.3-0.2,1.2-0.3,1.5c-0.7,1.3-1.5,2.6-2.7,3.6c-0.7,0.6-2.3,1.8-2.4,1.3C7.4,58.5,8.7,55.7,8.7,55.7z
			 M42.4,59.9c-0.1,0.4-0.2,1-0.4,1.1c-0.2,0.1-0.8,0-0.8-0.3c0-0.3,0.6-1,0.9-1.1C42.1,59.6,42.5,59.4,42.4,59.9z M67.7,57.1
			c-0.1,0.3-0.5,0.9-1.1,0.9c-0.6,0-0.8-0.3-0.4-1.1c0.2-0.5,0.7-0.8,1.2-1c0.2,0,0.4-0.1,0.5,0.1c0.1,0.2,0,0.5,0,0.7
			C67.8,56.8,67.8,57,67.7,57.1z M84.6,57.6c-0.5-0.1-0.6-1.2-0.4-1.9c0.1-0.6,0.4-0.8,0.4-0.8c0.8,0,0.7,0.8,0.7,0.8
			C85.3,57.8,84.6,57.6,84.6,57.6z"/>
	</g>
	<g>
		<polygon fill="#FFFFFF" points="-54.5,36.3 -63.8,25.2 -75.2,34.9 -65.7,46.2 -48.8,32.4 -49,32.1 		"/>
		<polygon fill="#FFFFFF" points="-21.3,36.3 -30.6,25.2 -42.1,34.9 -32.6,46.2 -15.7,32.4 -15.9,32.1 		"/>
		<polygon fill="#FFFFFF" points="-31.2,24.4 -31.2,-43.1 -48.3,-29.4 -48.2,-29.1 -42.7,-33.6 -42.7,-7.2 -64.2,-7.2 -64.6,-7.8 
			-64.6,-43.1 -81.5,-29.4 -81.2,-29.1 -75.5,-33.6 -75.5,34.1 -64.6,24.4 -64.6,3.2 -42.7,3.2 -42.7,34.1 		"/>
		<polygon fill="#FFFFFF" points="-3.4,24.4 -3.4,-21.6 -20.7,-7.9 -20.3,-7.6 -14.3,-12.2 -14.3,34.1 		"/>
		<polygon fill="#FFFFFF" points="-14.3,-34.3 -14.3,-23 -3.4,-32.7 -3.4,-43.8 -20.7,-29.9 -20.3,-29.6 		"/>
		<polygon fill="#FFFFFF" points="28,-35.1 8.8,-19.8 9,-19.5 16.5,-25.6 16.5,-20.1 15.2,-20.1 2.2,-9.2 16.5,-9.2 16.5,34.1 
			28,24.4 28,-9.2 32.2,-9.2 46.4,-20.1 28,-20.1 		"/>
		<polygon fill="#FFFFFF" points="60.3,24.4 60.3,-31.1 64.6,-34.7 73.9,-23.5 84.7,-32.6 75.3,-43.9 60.3,-31.6 60.3,-43.1 
			43.1,-29.4 43.3,-29.1 48.8,-33.6 48.8,34.1 		"/>
		<polygon fill="#FFFFFF" points="6.5,36.3 -2.8,25.2 -14.3,34.9 -4.7,46.2 12.2,32.4 11.9,32.1 		"/>
		<polygon fill="#FFFFFF" points="37.9,36.3 28.5,25.2 17.1,34.9 26.6,46.2 43.5,32.3 43.3,32 		"/>
		<polygon fill="#FFFFFF" points="69.9,36.3 60.5,25.2 49.1,34.9 58.6,46.2 75.6,32.3 75.3,32 		"/>
		<polygon fill="#FFFFFF" points="118.4,-11.9 107,-2.5 107,33.4 103.3,36.3 94,25.2 82.6,34.9 91.8,46.2 106.6,33.9 106.6,33.9 
			107,33.7 107.4,33.5 107.4,33.5 118.4,24.4 		"/>
		<polygon fill="#FFFFFF" points="163.3,-11.9 151.9,-2.5 151.9,33.4 148.2,36.3 138.8,25.2 127.4,34.9 136.9,46.2 151.8,33.9 
			151.8,33.9 152.1,33.7 152.4,33.5 152.4,33.5 163.3,24.4 		"/>
		<polygon fill="#FFFFFF" points="109.1,-24.3 94.1,-12 94.1,-21.6 76.5,-7.9 76.6,-7.6 82.2,-12.2 82.2,34.1 94.1,24.4 94.1,-11.5 
			97.8,-14.5 107,-3.3 118.5,-12.9 		"/>
		<polygon fill="#FFFFFF" points="153.7,-24.3 138.4,-12 138.4,-21.6 121,-7.9 121.2,-7.6 126.9,-12.2 126.9,34.1 138.4,24.4 
			138.4,-11.5 142.3,-14.5 151.6,-3.3 163.1,-12.9 		"/>
		<polygon fill="#FFFFFF" points="172.9,36.3 163.5,25.2 152.1,34.9 161.6,46.2 178.5,32.3 178.3,32 		"/>
	</g>
</g>
</svg>
