<?xml version="1.0" encoding="utf-8"?>
<!-- Generator: Adobe Illustrator 17.1.0, SVG Export Plug-In . SVG Version: 6.00 Build 0)  -->
<!DOCTYPE svg PUBLIC "-//W3C//DTD SVG 1.1//EN" "http://www.w3.org/Graphics/SVG/1.1/DTD/svg11.dtd">
<svg version="1.1" id="Layer_1" xmlns="http://www.w3.org/2000/svg" xmlns:xlink="http://www.w3.org/1999/xlink" x="0px" y="0px"
	 viewBox="-101.5 -2.5 300 25" enable-background="new -101.5 -2.5 300 25" xml:space="preserve">
<g>
	<path fill="#FFFFFF" d="M-94.1,7.6l3.6,4.9H-91l-1-1.3h-4.9l-1,1.3h-0.4l3.6-4.9H-94.1z M-94.4,7.8l-2.2,3h4.4L-94.4,7.8z"/>
	<path fill="#FFFFFF" d="M-82.1,10c0,0.7-0.2,1.3-0.6,1.7c-0.6,0.5-1.5,0.8-3,0.8h-3.2V7.6h3.2c1.5,0,2.4,0.3,3,0.8
		C-82.3,8.8-82.1,9.4-82.1,10z M-88.5,12.1h2.8c1.3,0,2.2-0.2,2.6-0.7c0.3-0.3,0.6-0.8,0.6-1.4c0-0.6-0.1-1-0.6-1.4
		c-0.4-0.4-1.3-0.7-2.6-0.7h-2.8V12.1z"/>
	<path fill="#FFFFFF" d="M-77.1,7.6l3.6,4.9H-74l-1-1.3h-4.9l-1,1.3h-0.5l3.6-4.9H-77.1z M-77.4,7.8l-2.2,3h4.4L-77.4,7.8z"/>
	<path fill="#FFFFFF" d="M-72,7.6h3.9c0.7,0,1.2,0.1,1.5,0.1c0.3,0.1,0.6,0.2,0.8,0.4c0.2,0.2,0.3,0.6,0.3,1s-0.1,0.8-0.3,1
		c-0.2,0.2-0.4,0.3-0.8,0.4c-0.3,0.1-0.8,0.1-1.5,0.1h-3.5v1.8H-72V7.6z M-71.5,10.3h3.5c1,0,1.7-0.1,1.9-0.3
		c0.2-0.2,0.3-0.5,0.3-0.8c0-0.3-0.1-0.6-0.3-0.8c-0.1-0.1-0.3-0.2-0.6-0.3c-0.3-0.1-0.7-0.1-1.3-0.1h-3.5V10.3z"/>
	<path fill="#FFFFFF" d="M-57.3,7.6v0.3h-3.4v4.5h-0.4V8h-3.4V7.6H-57.3z"/>
	<path fill="#FFFFFF" d="M-46.1,7.6v0.3h-3.4v4.5h-0.4V8h-3.4V7.6H-46.1z"/>
	<path fill="#FFFFFF" d="M-41.4,7.4c1.5,0,2.6,0.3,3.2,0.8c0.4,0.4,0.6,1,0.6,1.7c0,0.7-0.2,1.3-0.6,1.7c-0.6,0.6-1.7,0.8-3.2,0.8
		s-2.6-0.3-3.2-0.8c-0.4-0.4-0.6-1-0.6-1.7c0-0.7,0.2-1.3,0.6-1.7C-44,7.8-43,7.4-41.4,7.4z M-41.4,7.8c-1.4,0-2.4,0.3-2.9,0.8
		c-0.3,0.3-0.6,0.8-0.6,1.5c0,0.6,0.2,1.1,0.6,1.5c0.5,0.5,1.5,0.8,2.9,0.8s2.4-0.3,2.9-0.8c0.3-0.3,0.6-0.8,0.6-1.5
		c0-0.6-0.2-1.1-0.6-1.5C-39.1,8.1-40,7.8-41.4,7.8z"/>
	<path fill="#FFFFFF" d="M-26.1,7.6v0.3h-3.4v4.5H-30V8h-3.4V7.6H-26.1z"/>
	<path fill="#FFFFFF" d="M-24.2,9.8h5.9V7.6h0.4v4.9h-0.4v-2.3h-5.9v2.3h-0.4V7.6h0.4V9.8z"/>
	<path fill="#FFFFFF" d="M-15.3,9.8h5.6v0.3h-5.6v1.9h5.8v0.3h-6.2V7.6h6.2v0.3h-5.8C-15.3,7.9-15.3,9.8-15.3,9.8z"/>
	<path fill="#FFFFFF" d="M-3.9,7.6l5.8,4.5V7.6h0.4v4.9H1.6l-5.8-4.5v4.5h-0.4V7.6H-3.9z"/>
	<path fill="#FFFFFF" d="M4.8,9.8h5.6v0.3H4.8v1.9h5.8v0.3H4.4V7.6h6.2v0.3H4.8V9.8z"/>
	<path fill="#FFFFFF" d="M20.2,12.5l-2.5-4.5l-2.4,4.5h-0.6l-2.9-4.9h0.5l2.7,4.6l2.4-4.6h0.5l2.6,4.6l2.6-4.6h0.5l-2.8,4.9H20.2z"
		/>
	<path fill="#FFFFFF" d="M28.6,9.8h5.6v0.3h-5.6v1.9h5.8v0.3h-6.2V7.6h6.2v0.3h-5.8V9.8z"/>
	<path fill="#FFFFFF" d="M36.2,7.6h3.9c0.7,0,1.2,0.1,1.5,0.1c0.3,0.1,0.6,0.2,0.7,0.3c0.3,0.3,0.3,0.6,0.3,1c0,0.4-0.1,0.8-0.3,1
		c-0.1,0.1-0.4,0.3-0.7,0.4c-0.3,0.1-0.8,0.1-1.4,0.1l3.1,1.8l0,0h-0.7l-3.1-1.8h-2.9v1.8h-0.4V7.6z M36.6,8v2.3h3.5
		c0.6,0,1,0,1.3-0.1c0.3-0.1,0.5-0.1,0.6-0.3c0.2-0.2,0.3-0.4,0.3-0.8S42.2,8.6,42,8.4c-0.1-0.1-0.3-0.2-0.6-0.3
		c-0.3-0.1-0.7-0.1-1.3-0.1L36.6,8L36.6,8z"/>
	<path fill="#FFFFFF" d="M48.3,7.6l3.6,4.9h-0.5l-1-1.3h-4.9l-1,1.3H44l3.6-4.9H48.3z M47.9,7.8l-2.2,3h4.4L47.9,7.8z"/>
	<path fill="#FFFFFF" d="M59.9,7.4c1.5,0,2.6,0.3,3.2,0.8c0.4,0.4,0.6,1,0.6,1.7c0,0.7-0.2,1.3-0.6,1.7c-0.6,0.6-1.7,0.8-3.2,0.8
		c-1.5,0-2.6-0.3-3.2-0.8c-0.4-0.4-0.6-1-0.6-1.7c0-0.7,0.2-1.3,0.6-1.7C57.3,7.8,58.4,7.4,59.9,7.4z M59.9,7.8
		c-1.4,0-2.4,0.3-2.9,0.8c-0.3,0.3-0.6,0.8-0.6,1.5c0,0.6,0.2,1.1,0.6,1.5c0.5,0.5,1.5,0.8,2.9,0.8s2.4-0.3,2.9-0.8
		c0.3-0.3,0.6-0.8,0.6-1.5c0-0.6-0.2-1.1-0.6-1.5C62.3,8.1,61.3,7.8,59.9,7.8z"/>
	<path fill="#FFFFFF" d="M66,9.9h5.5v0.3H66v2.2h-0.4V7.6h6.1V8H66C66,8,66,9.9,66,9.9z"/>
	<path fill="#FFFFFF" d="M79.6,12.2c1.3,0,2.2-0.1,2.5-0.5c0.1-0.1,0.2-0.3,0.2-0.6s-0.1-0.4-0.2-0.6s-0.3-0.2-0.7-0.3
		c-0.3-0.1-1-0.1-1.9-0.1c-0.9-0.1-1.6-0.1-2-0.2c-0.4-0.1-0.7-0.2-0.8-0.3c-0.2-0.2-0.3-0.4-0.3-0.7c0-0.3,0.1-0.6,0.3-0.8
		c0.4-0.4,1.3-0.6,2.7-0.6c1.2,0,2.2,0.1,3.1,0.4v0.3c-0.9-0.3-1.9-0.5-3.1-0.5c-1.3,0-2.1,0.1-2.4,0.4c-0.1,0.1-0.2,0.3-0.2,0.6
		s0.1,0.3,0.2,0.5c0.1,0.1,0.3,0.2,0.8,0.3c0.3,0.1,1,0.1,1.9,0.1c1,0.1,1.7,0.1,2.1,0.2c0.4,0.1,0.6,0.2,0.8,0.3
		c0.2,0.2,0.3,0.4,0.3,0.8s-0.1,0.6-0.3,0.8c-0.2,0.2-0.5,0.3-0.9,0.4c-0.4,0.1-1,0.1-1.9,0.1c-1.4,0-2.5-0.2-3.5-0.6v-0.4
		c0.4,0.1,0.9,0.3,1.5,0.4C78.3,12.2,78.9,12.2,79.6,12.2z"/>
	<path fill="#FFFFFF" d="M85,9.8h5.6v0.3H85v1.9h5.8v0.3h-6.2V7.6h6.2v0.3H85V9.8z"/>
	<path fill="#FFFFFF" d="M95.8,12.6c-1.5,0-2.6-0.3-3.1-0.8c-0.4-0.4-0.6-1-0.6-1.7c0-0.7,0.2-1.3,0.6-1.7c0.6-0.6,1.6-0.8,3.1-0.8
		c0.6,0,1.2,0.1,1.7,0.2s1,0.3,1.3,0.4v0.4c-0.3-0.2-0.8-0.3-1.4-0.5C97,8,96.4,7.9,95.8,7.9c-1.4,0-2.3,0.3-2.8,0.8
		c-0.3,0.3-0.5,0.8-0.5,1.5c0,0.6,0.1,1.1,0.5,1.5c0.5,0.5,1.5,0.8,2.8,0.8c0.6,0,1.2-0.1,1.7-0.2c0.6-0.1,1-0.3,1.4-0.5v0.4
		c-0.3,0.1-0.8,0.3-1.3,0.4C97.1,12.5,96.5,12.6,95.8,12.6z"/>
	<path fill="#FFFFFF" d="M104,12.2c1.3,0,2.1-0.2,2.5-0.6c0.3-0.3,0.4-0.8,0.4-1.3V7.6h0.4v2.7c0,0.6-0.2,1.2-0.6,1.5
		c-0.5,0.5-1.5,0.8-2.9,0.8c-1.4,0-2.4-0.3-2.9-0.8c-0.3-0.3-0.6-0.8-0.6-1.5V7.6h0.4v2.6c0,0.6,0.1,1,0.4,1.3
		C102,12,102.8,12.2,104,12.2z"/>
	<path fill="#FFFFFF" d="M109.4,7.6h3.9c0.7,0,1.2,0.1,1.5,0.1s0.6,0.2,0.7,0.3c0.3,0.3,0.3,0.6,0.3,1c0,0.4-0.1,0.8-0.3,1
		c-0.1,0.1-0.4,0.3-0.7,0.4c-0.3,0.1-0.8,0.1-1.4,0.1l3.1,1.8l0,0h-0.7l-3.1-1.8h-2.9v1.8h-0.4V7.6z M109.8,8v2.3h3.5
		c0.6,0,1,0,1.3-0.1c0.3-0.1,0.5-0.1,0.6-0.3c0.2-0.2,0.3-0.4,0.3-0.8s-0.1-0.6-0.3-0.8c-0.1-0.1-0.3-0.2-0.6-0.3
		c-0.3-0.1-0.7-0.1-1.3-0.1L109.8,8L109.8,8z"/>
	<path fill="#FFFFFF" d="M118.5,12.4h-0.4V7.6h0.4V12.4z"/>
	<path fill="#FFFFFF" d="M127.5,7.6v0.3H124v4.5h-0.4V8h-3.4V7.6H127.5z"/>
	<path fill="#FFFFFF" d="M128.6,7.6l3.1,2.5l3.1-2.5h0.6l0,0l-3.5,2.9v2h-0.3v-2l-3.4-2.8l0,0L128.6,7.6L128.6,7.6z"/>
	<path fill="#FFFFFF" d="M146.4,7.6v0.3H143v4.5h-0.4V8h-3.4V7.6H146.4z"/>
	<path fill="#FFFFFF" d="M148.3,9.8h5.8V7.6h0.4v4.9h-0.4v-2.3h-5.8v2.3h-0.4V7.6h0.4V9.8z"/>
	<path fill="#FFFFFF" d="M156.8,7.6h3.9c0.7,0,1.2,0.1,1.5,0.1s0.6,0.2,0.7,0.3c0.3,0.3,0.3,0.6,0.3,1c0,0.4-0.1,0.8-0.3,1
		c-0.1,0.1-0.4,0.3-0.7,0.4c-0.3,0.1-0.8,0.1-1.4,0.1l3.1,1.8l0,0h-0.7l-3.1-1.8h-2.9v1.8h-0.4L156.8,7.6L156.8,7.6z M157.3,8v2.3
		h3.5c0.6,0,1,0,1.3-0.1c0.3-0.1,0.5-0.1,0.6-0.3c0.2-0.2,0.3-0.4,0.3-0.8s-0.1-0.6-0.3-0.8c-0.1-0.1-0.3-0.2-0.6-0.3
		c-0.3-0.1-0.7-0.1-1.3-0.1L157.3,8L157.3,8z"/>
	<path fill="#FFFFFF" d="M165.8,9.8h5.6v0.3h-5.6v1.9h5.8v0.3h-6.2V7.6h6.2v0.3h-5.8V9.8z"/>
	<path fill="#FFFFFF" d="M176.9,7.6l3.6,4.9H180l-1-1.3h-4.9l-1,1.3h-0.5l3.6-4.9H176.9z M176.6,7.8l-2.2,3h4.4L176.6,7.8z"/>
	<path fill="#FFFFFF" d="M187.7,7.6v0.3h-3.4v4.5h-0.4V8h-3.4V7.6H187.7z"/>
	<path fill="#FFFFFF" d="M192.1,12.2c1.3,0,2.2-0.1,2.5-0.5c0.1-0.1,0.2-0.3,0.2-0.6s-0.1-0.4-0.2-0.6s-0.3-0.2-0.7-0.3
		c-0.3-0.1-1-0.1-1.9-0.1c-0.9-0.1-1.6-0.1-2-0.2c-0.4-0.1-0.7-0.2-0.8-0.3c-0.2-0.2-0.3-0.4-0.3-0.7c0-0.3,0.1-0.6,0.3-0.8
		c0.4-0.4,1.3-0.6,2.7-0.6c1.2,0,2.2,0.1,3.1,0.4v0.3c-0.9-0.3-1.9-0.5-3.1-0.5c-1.3,0-2.1,0.1-2.4,0.4c-0.1,0.1-0.2,0.3-0.2,0.6
		s0.1,0.3,0.2,0.5c0.1,0.1,0.3,0.2,0.8,0.3c0.3,0.1,1,0.1,1.9,0.1c1,0.1,1.7,0.1,2.1,0.2c0.4,0.1,0.6,0.2,0.8,0.3
		c0.2,0.2,0.3,0.4,0.3,0.8s-0.1,0.6-0.3,0.8c-0.2,0.2-0.5,0.3-0.9,0.4c-0.4,0.1-1,0.1-1.9,0.1c-1.4,0-2.5-0.2-3.5-0.6v-0.4
		c0.4,0.1,0.9,0.3,1.5,0.4C190.8,12.2,191.4,12.2,192.1,12.2z"/>
</g>
</svg>
